<svg xmlns="http://www.w3.org/2000/svg" xmlns:xlink="http://www.w3.org/1999/xlink" version="1.1" x="0px" y="0px" viewBox="0 0 100 125" enable-background="new 0 0 100 100" xml:space="preserve"><path d="M72.34,39.365h-5.215v-8.808c0-9.443-7.683-17.125-17.125-17.125s-17.125,7.682-17.125,17.125v8.808H27.66  c-3.584,0-6.5,2.916-6.5,6.5v34.202c0,3.584,2.916,6.5,6.5,6.5h44.68c3.584,0,6.5-2.916,6.5-6.5V45.865  C78.84,42.281,75.924,39.365,72.34,39.365z M35.875,30.558c0-7.789,6.337-14.125,14.125-14.125s14.125,6.336,14.125,14.125v8.808  h-28.25V30.558z M75.84,80.067c0,1.93-1.57,3.5-3.5,3.5H27.66c-1.93,0-3.5-1.57-3.5-3.5V45.865c0-1.93,1.57-3.5,3.5-3.5h5.215  v12.327c0,0.829,0.672,1.5,1.5,1.5s1.5-0.671,1.5-1.5V42.365h28.25v12.327c0,0.829,0.672,1.5,1.5,1.5s1.5-0.671,1.5-1.5V42.365  h5.215c1.93,0,3.5,1.57,3.5,3.5V80.067z"/><text x="0" y="115" fill="#000000" font-size="5px" font-weight="bold" font-family="'Helvetica Neue', Helvetica, Arial-Unicode, Arial, Sans-serif">Created by amante de icono</text><text x="0" y="120" fill="#000000" font-size="5px" font-weight="bold" font-family="'Helvetica Neue', Helvetica, Arial-Unicode, Arial, Sans-serif">from the Noun Project</text></svg>