<svg xmlns="http://www.w3.org/2000/svg" xmlns:xlink="http://www.w3.org/1999/xlink" viewBox="0 0 100 125" version="1.1" x="0px" y="0px"><title>13</title><desc>Created with Sketch.</desc><g stroke="none" stroke-width="1" fill="none" fill-rule="evenodd"><path d="M38.5,73 C57.5538239,73 73,57.5538239 73,38.5 C73,19.4461761 57.5538239,4 38.5,4 C19.4461761,4 4,19.4461761 4,38.5 C4,57.5538239 19.4461761,73 38.5,73 Z M67.1012947,64.2728676 L98.9142136,96.0857864 C99.6952621,96.866835 99.6952621,98.133165 98.9142136,98.9142136 C98.133165,99.6952621 96.866835,99.6952621 96.0857864,98.9142136 L64.2728676,67.1012947 C57.4489202,73.2543491 48.4118819,77 38.5,77 C17.2370371,77 0,59.7629629 0,38.5 C0,17.2370371 17.2370371,0 38.5,0 C59.7629629,0 77,17.2370371 77,38.5 C77,48.4118819 73.2543491,57.4489202 67.1012947,64.2728676 Z" fill="#000000" fill-rule="nonzero"/></g><text x="0" y="115" fill="#000000" font-size="5px" font-weight="bold" font-family="'Helvetica Neue', Helvetica, Arial-Unicode, Arial, Sans-serif">Created by Tatyana Kyul</text><text x="0" y="120" fill="#000000" font-size="5px" font-weight="bold" font-family="'Helvetica Neue', Helvetica, Arial-Unicode, Arial, Sans-serif">from the Noun Project</text></svg>