<svg xmlns="http://www.w3.org/2000/svg" viewBox="0 0 48 60" x="0px" y="0px"><g><path d="M5,48H43a1,1,0,0,0,1-1V39A15.017,15.017,0,0,0,29,24H19A15.017,15.017,0,0,0,4,39v8A1,1,0,0,0,5,48Zm1-9A13.015,13.015,0,0,1,19,26H29A13.015,13.015,0,0,1,42,39v7H6Z"/><path d="M24,22c5.514,0,10-4.935,10-11S29.514,0,24,0,14,4.935,14,11,18.486,22,24,22ZM24,2c4.411,0,8,4.038,8,9s-3.589,9-8,9-8-4.038-8-9S19.589,2,24,2Z"/></g><text x="0" y="63" fill="#000000" font-size="5px" font-weight="bold" font-family="'Helvetica Neue', Helvetica, Arial-Unicode, Arial, Sans-serif">Created by KP Arts</text><text x="0" y="68" fill="#000000" font-size="5px" font-weight="bold" font-family="'Helvetica Neue', Helvetica, Arial-Unicode, Arial, Sans-serif">from the Noun Project</text></svg>